<svg id="visual" viewBox="0 0 900 600" width="900" height="600" xmlns="http://www.w3.org/2000/svg" xmlns:xlink="http://www.w3.org/1999/xlink" version="1.1"><path d="M0 91L10.7 87C21.3 83 42.7 75 64.2 75C85.7 75 107.3 83 128.8 85C150.3 87 171.7 83 193 81C214.3 79 235.7 79 257 78C278.3 77 299.7 75 321.2 70C342.7 65 364.3 57 385.8 53C407.3 49 428.7 49 450 52C471.3 55 492.7 61 514.2 67C535.7 73 557.3 79 578.8 81C600.3 83 621.7 81 643 75C664.3 69 685.7 59 707 59C728.3 59 749.7 69 771.2 69C792.7 69 814.3 59 835.8 55C857.3 51 878.7 53 889.3 54L900 55L900 0L889.3 0C878.7 0 857.3 0 835.8 0C814.3 0 792.7 0 771.2 0C749.7 0 728.3 0 707 0C685.7 0 664.3 0 643 0C621.7 0 600.3 0 578.8 0C557.3 0 535.7 0 514.2 0C492.7 0 471.3 0 450 0C428.7 0 407.3 0 385.8 0C364.3 0 342.7 0 321.2 0C299.7 0 278.3 0 257 0C235.7 0 214.3 0 193 0C171.7 0 150.3 0 128.8 0C107.3 0 85.7 0 64.2 0C42.7 0 21.3 0 10.7 0L0 0Z" fill="#c4c4c4"></path><path d="M0 163L10.7 158C21.3 153 42.7 143 64.2 147C85.7 151 107.3 169 128.8 176C150.3 183 171.7 179 193 173C214.3 167 235.7 159 257 156C278.3 153 299.7 155 321.2 148C342.7 141 364.3 125 385.8 125C407.3 125 428.7 141 450 150C471.3 159 492.7 161 514.2 159C535.7 157 557.3 151 578.8 148C600.3 145 621.7 145 643 145C664.3 145 685.7 145 707 149C728.3 153 749.7 161 771.2 162C792.7 163 814.3 157 835.8 151C857.3 145 878.7 139 889.3 136L900 133L900 53L889.3 52C878.7 51 857.3 49 835.8 53C814.3 57 792.7 67 771.2 67C749.7 67 728.3 57 707 57C685.7 57 664.3 67 643 73C621.7 79 600.3 81 578.8 79C557.3 77 535.7 71 514.2 65C492.7 59 471.3 53 450 50C428.7 47 407.3 47 385.8 51C364.3 55 342.7 63 321.2 68C299.7 73 278.3 75 257 76C235.7 77 214.3 77 193 79C171.7 81 150.3 85 128.8 83C107.3 81 85.7 73 64.2 73C42.7 73 21.3 81 10.7 85L0 89Z" fill="#b7b7b7"></path><path d="M0 385L10.7 372C21.3 359 42.7 333 64.2 329C85.7 325 107.3 343 128.8 354C150.3 365 171.7 369 193 368C214.3 367 235.7 361 257 361C278.3 361 299.7 367 321.2 363C342.7 359 364.3 345 385.8 331C407.3 317 428.7 303 450 306C471.3 309 492.7 329 514.2 332C535.7 335 557.3 321 578.8 327C600.3 333 621.7 359 643 364C664.3 369 685.7 353 707 348C728.3 343 749.7 349 771.2 343C792.7 337 814.3 319 835.8 319C857.3 319 878.7 337 889.3 346L900 355L900 131L889.3 134C878.7 137 857.3 143 835.8 149C814.3 155 792.7 161 771.2 160C749.7 159 728.3 151 707 147C685.7 143 664.3 143 643 143C621.7 143 600.3 143 578.8 146C557.3 149 535.7 155 514.2 157C492.7 159 471.3 157 450 148C428.7 139 407.3 123 385.8 123C364.3 123 342.7 139 321.2 146C299.7 153 278.3 151 257 154C235.7 157 214.3 165 193 171C171.7 177 150.3 181 128.8 174C107.3 167 85.7 149 64.2 145C42.7 141 21.3 151 10.7 156L0 161Z" fill="#aaaaaa"></path><path d="M0 463L10.7 459C21.3 455 42.7 447 64.2 446C85.7 445 107.3 451 128.8 455C150.3 459 171.7 461 193 464C214.3 467 235.7 471 257 476C278.3 481 299.7 487 321.2 487C342.7 487 364.3 481 385.8 467C407.3 453 428.7 431 450 431C471.3 431 492.7 453 514.2 454C535.7 455 557.3 435 578.8 433C600.3 431 621.7 447 643 449C664.3 451 685.7 439 707 437C728.3 435 749.7 443 771.2 441C792.7 439 814.3 427 835.8 426C857.3 425 878.7 435 889.3 440L900 445L900 353L889.3 344C878.7 335 857.3 317 835.8 317C814.3 317 792.7 335 771.2 341C749.7 347 728.3 341 707 346C685.7 351 664.3 367 643 362C621.7 357 600.3 331 578.8 325C557.3 319 535.7 333 514.2 330C492.7 327 471.3 307 450 304C428.7 301 407.3 315 385.8 329C364.3 343 342.7 357 321.2 361C299.7 365 278.3 359 257 359C235.7 359 214.3 365 193 366C171.7 367 150.3 363 128.8 352C107.3 341 85.7 323 64.2 327C42.7 331 21.3 357 10.7 370L0 383Z" fill="#939393"></path><path d="M0 601L10.7 601C21.3 601 42.7 601 64.2 601C85.7 601 107.3 601 128.8 601C150.3 601 171.7 601 193 601C214.3 601 235.7 601 257 601C278.3 601 299.7 601 321.2 601C342.7 601 364.3 601 385.8 601C407.3 601 428.7 601 450 601C471.3 601 492.7 601 514.2 601C535.7 601 557.3 601 578.8 601C600.3 601 621.7 601 643 601C664.3 601 685.7 601 707 601C728.3 601 749.7 601 771.2 601C792.7 601 814.3 601 835.8 601C857.3 601 878.7 601 889.3 601L900 601L900 443L889.3 438C878.7 433 857.3 423 835.8 424C814.3 425 792.7 437 771.2 439C749.7 441 728.3 433 707 435C685.7 437 664.3 449 643 447C621.7 445 600.3 429 578.8 431C557.3 433 535.7 453 514.2 452C492.7 451 471.3 429 450 429C428.7 429 407.3 451 385.8 465C364.3 479 342.7 485 321.2 485C299.7 485 278.3 479 257 474C235.7 469 214.3 465 193 462C171.7 459 150.3 457 128.8 453C107.3 449 85.7 443 64.2 444C42.7 445 21.3 453 10.7 457L0 461Z" fill="#7c7c7c"></path></svg>