<svg xmlns="http://www.w3.org/2000/svg" version="1.1" xmlns:xlink="http://www.w3.org/1999/xlink" xmlns:svgjs="http://svgjs.dev/svgjs" width="1440" height="560" preserveAspectRatio="none" viewBox="0 0 1440 560"><g mask="url(&quot;#SvgjsMask6929&quot;)" fill="none"><rect width="1440" height="560" x="0" y="0" fill="url(&quot;#SvgjsLinearGradient6930&quot;)"></rect><path d="M447.24 591.84C639.46 570.29 757.02 148.04 1080.05 146.7 1403.08 145.36 1548.06 329.62 1712.86 331.5" stroke="rgba(255, 255, 255, 0.65)" stroke-width="2"></path><path d="M57.61 665.31C185.98 661.41 292.58 468.06 531.82 467.77 771.05 467.48 768.92 537.77 1006.02 537.77 1243.13 537.77 1360.39 467.96 1480.23 467.77" stroke="rgba(255, 255, 255, 0.65)" stroke-width="2"></path><path d="M451.67 635.5C539.55 635.5 529.59 621.41 802.78 618.75 1075.97 616.09 1316.57 349.17 1504.99 344.35" stroke="rgba(255, 255, 255, 0.65)" stroke-width="2"></path><path d="M574.96 625.38C651.45 624.78 634.47 554.6 871.34 549.43 1108.21 544.26 1303.17 302.59 1464.11 297.43" stroke="rgba(255, 255, 255, 0.65)" stroke-width="2"></path><path d="M866.09 586.43C953.77 573.64 906.28 381.35 1143.9 366.34 1381.52 351.33 1548.22 130.64 1699.52 125.54" stroke="rgba(255, 255, 255, 0.65)" stroke-width="2"></path></g><defs><mask id="SvgjsMask6929"><rect width="1440" height="560" fill="#ffffff"></rect></mask><linearGradient x1="50%" y1="100%" x2="50%" y2="0%" gradientUnits="userSpaceOnUse" id="SvgjsLinearGradient6930"><stop stop-color="rgba(61, 12, 15, 1)" offset="0"></stop><stop stop-color="rgba(0, 0, 0, 1)" offset="0"></stop><stop stop-color="rgba(80, 80, 80, 1)" offset="1"></stop></linearGradient></defs></svg>